<svg width="98" height="94" viewBox="0 0 98 94" fill="none" xmlns="http://www.w3.org/2000/svg">
<path d="M18.2574 66.1076L76.0225 18.1749C76.6709 17.6368 77.638 17.7528 78.1408 18.429L83.1186 25.1233C83.5849 25.7504 83.4791 26.6327 82.8777 27.1317L25.1126 75.0644C24.4642 75.6025 23.4971 75.4865 22.9943 74.8103L18.0165 68.116C17.5502 67.489 17.656 66.6066 18.2574 66.1076Z" fill="#F6FFF6"/>
<path d="M13.2758 36.6161L38.9309 17.0221C39.1872 16.8264 39.5007 16.7204 39.8232 16.7204H55.3358C56.742 16.7204 57.3456 18.5051 56.2281 19.3586L33.6322 36.6161L33.6298 36.6179C33.6284 36.619 33.6281 36.6192 33.6253 36.6214C33.4979 36.7209 19.9578 47.3238 20.3655 55.7214C20.7464 63.569 33.4843 73.1168 33.625 73.2221C33.6294 73.2253 33.6284 73.2246 33.6327 73.2279L56.2281 90.485C57.3456 91.3385 56.742 93.1232 55.3358 93.1232H39.8232C39.5007 93.1232 39.1872 93.0172 38.9309 92.8215L13.2763 73.2279C13.272 73.2246 13.273 73.2253 13.2686 73.2221C13.1278 73.1168 0.389951 63.569 0.00902174 55.7214C-0.398598 47.3238 13.1415 36.7209 13.2689 36.6214C13.2728 36.6183 13.2718 36.6191 13.2758 36.6161Z" fill="#F6FFF6"/>
<path d="M84.7243 56.5071L59.0691 76.1011C58.8128 76.2968 58.4993 76.4028 58.1768 76.4028H42.6642C41.258 76.4028 40.6544 74.6181 41.7719 73.7646L64.3678 56.5071C64.3718 56.5041 64.3707 56.5049 64.3747 56.5019C64.5021 56.4023 78.0422 45.7994 77.6346 37.4019C77.2536 29.5542 64.5157 20.0064 64.375 19.9012C64.3706 19.8979 64.3716 19.8986 64.3673 19.8953L41.7719 2.63825C40.6544 1.78474 41.258 -1.22933e-07 42.6642 0L58.1768 1.35616e-06C58.4993 1.38435e-06 58.8128 0.10603 59.0691 0.30175L84.7237 19.8953C84.7281 19.8986 84.727 19.8979 84.7314 19.9012C84.8722 20.0064 97.6101 29.5542 97.991 37.4019C98.3986 45.7994 84.8585 56.4023 84.7311 56.5019C84.7272 56.5049 84.7282 56.5041 84.7243 56.5071Z" fill="#F6FFF6"/>
<path d="M68.2749 87.3175C68.2749 90.5239 65.6756 93.1232 62.4692 93.1232C59.2628 93.1232 56.6635 90.5239 56.6635 87.3175C56.6635 84.1112 59.2628 81.5119 62.4692 81.5119C65.6756 81.5119 68.2749 84.1112 68.2749 87.3175Z" fill="#F6FFF6"/>
</svg>
